<?xml version="1.0" encoding="UTF-8" standalone="no"?>
<!DOCTYPE svg PUBLIC "-//W3C//DTD SVG 1.1//EN" "http://www.w3.org/Graphics/SVG/1.1/DTD/svg11.dtd">
<svg xmlns="http://www.w3.org/2000/svg">
<metadata>Generated by IcoMoon</metadata>
<defs>
<font id="icomoon" horiz-adv-x="1024">
<font-face units-per-em="1024" ascent="960" descent="-64"/>
<missing-glyph horiz-adv-x="1024"/>
<glyph unicode=" " horiz-adv-x="512" d=""/>
<glyph unicode="" glyph-name="checked" horiz-adv-x="1365" d="M0 404.407l467.529-468.114 897.804 896.634-128.926 126.781-768.878-767.707-340.748 340.456z"/>
<glyph unicode="" glyph-name="hide-password" d="M512 217.6c-120.83 0.149-219.777 93.64-228.614 212.23l-0.046 0.762-167.834 129.69c-21.322-25.988-40.807-55.117-57.328-86.066l-1.398-2.868c-3.225-6.837-5.247-14.817-5.577-23.23l-0.004-0.117c0.334-8.531 2.356-16.51 5.739-23.723l-0.159 0.376c85.519-168.504 256.899-282.307 455.011-283.852l0.208-0.001c44.436 0.307 87.318 6.398 128.107 17.555l-3.487-0.813-82.995 64.256c-12.283-2.3-26.633-3.812-41.265-4.191l-0.36-0.007zM1014.118 124.621l-176.896 136.704c51.304 46.285 94.585 100.188 128.358 160.161l1.639 3.167c3.225 6.837 5.247 14.817 5.577 23.23l0.004 0.117c-0.334 8.531-2.356 16.51-5.739 23.723l0.159-0.376c-85.519 168.504-256.899 282.307-455.011 283.852l-0.208 0.001c-86.412-3.639-166.909-25.512-238.862-61.843l3.342 1.53-203.571 157.338c-4.437 3.143-9.901 5.117-15.81 5.374l-0.062 0.002c-8.091-0.458-15.233-4.175-20.195-9.848l-0.029-0.034-31.386-40.448c-3.134-4.392-5.121-9.796-5.424-15.646l-0.003-0.073c0.458-8.091 4.175-15.233 9.848-20.195l0.034-0.029 941.363-727.552c4.396-3.116 9.801-5.086 15.649-5.373l0.069-0.003c8.091 0.458 15.233 4.175 20.195 9.848l0.029 0.034 31.437 40.448c3.116 4.396 5.086 9.801 5.373 15.649l0.003 0.069c-0.472 8.072-4.187 15.194-9.848 20.144l-0.034 0.029zM720.179 351.846l-62.925 48.589c4.632 14.080 7.632 30.343 8.334 47.2l0.012 0.364c0 0.563 0 1.434 0 1.997-0.029 83.716-67.887 151.574-151.6 151.603h-0.003c-15.266-0.379-29.853-2.578-43.772-6.391l1.276 0.298c8.597-12.715 14.040-28.198 14.891-44.893l0.009-0.214c-0.372-5.879-1.247-11.357-2.591-16.646l0.134 0.621-117.76 91.034c40.261 30.64 90.516 50.102 145.167 52.965l0.651 0.027c127.246 0 230.4-103.154 230.4-230.4v0 0c-0.214-35.005-8.391-68.048-22.808-97.48l0.587 1.327z"/>
<glyph unicode="" glyph-name="left-arrow" d="M1006.933 494.421v0l-221.867 277.049c-10.396 10.995-25.083 17.839-41.37 17.839-31.419 0-56.889-25.47-56.889-56.889 0-11.734 3.553-22.639 9.641-31.696l-0.129 0.204 152.462-190.009h-791.893c-31.419 0-56.889-25.47-56.889-56.889s25.47-56.889 56.889-56.889v0h791.893l-153.6-192.284c-9.611-10.165-15.519-23.917-15.519-39.050 0-31.419 25.47-56.889 56.889-56.889 19.685 0 37.034 9.998 47.248 25.193l0.129 0.204 221.867 277.049c10.393 10.311 16.828 24.6 16.828 40.391s-6.434 30.080-16.824 40.387l-0.004 0.004z"/>
<glyph unicode="" glyph-name="location-fill" d="M518.77 960c-207.87-0.227-376.321-168.677-376.548-376.526v-0.022c0-257.65 336.953-635.961 351.346-651.947 6.265-6.858 15.247-11.144 25.23-11.144s18.965 4.286 25.206 11.117l0.024 0.026c14.336 15.986 351.346 394.24 351.346 651.947-0.259 207.877-168.723 376.321-376.583 376.548h-0.022zM518.77 394.012c-104.625 0-189.44 84.815-189.44 189.44s84.815 189.44 189.44 189.44c104.625 0 189.44-84.815 189.44-189.44v0c-0.129-104.573-84.867-189.311-189.428-189.44h-0.012z"/>
<glyph unicode="" glyph-name="lock-form" d="M139.636-64h744.727c77.119 0 139.636 62.517 139.636 139.636v0 465.455c0 77.119-62.517 139.636-139.636 139.636v0h-93.091v139.636c0 77.119-62.517 139.636-139.636 139.636v0h-279.273c-77.119 0-139.636-62.517-139.636-139.636v0-139.636h-93.091c-77.119 0-139.636-62.517-139.636-139.636v0-465.455c0-77.119 62.517-139.636 139.636-139.636v0zM325.818 820.364c0 25.706 20.839 46.545 46.545 46.545v0h279.273c25.706 0 46.545-20.839 46.545-46.545v0-139.636h-372.364zM93.091 541.091c0 25.706 20.839 46.545 46.545 46.545v0h744.727c25.706 0 46.545-20.839 46.545-46.545v0-465.455c0-25.706-20.839-46.545-46.545-46.545v0h-744.727c-25.706 0-46.545 20.839-46.545 46.545v0z"/>
<glyph unicode="" glyph-name="mail-form" d="M900.189 820.364h-776.378c-70.009-8.216-123.814-67.193-123.814-138.737 0-0.316 0.001-0.632 0.003-0.948v0.048-465.455c0-77.119 62.517-139.636 139.636-139.636v0h744.727c77.119 0 139.636 62.517 139.636 139.636v0 465.455c0.002 0.267 0.003 0.583 0.003 0.899 0 71.544-53.805 130.521-123.158 138.674l-0.656 0.063zM878.778 727.273l-320.233-320.233c-8.413-8.365-20.010-13.535-32.815-13.535s-24.401 5.17-32.817 13.537l-320.231 320.231zM930.909 215.273c0-25.706-20.839-46.545-46.545-46.545v0h-744.727c-25.706 0-46.545 20.839-46.545 46.545v0 446.371l320.233-320.233c25.263-25.233 60.147-40.837 98.676-40.837s73.413 15.605 98.678 40.839l320.232 320.232z"/>
<glyph unicode="" glyph-name="ok" d="M1024 448c0 282.77-229.23 512-512 512v0c-282.77 0-512-229.23-512-512v0c0-282.77 229.23-512 512-512v0c282.77 0 512 229.23 512 512v0zM452.542 177.135c-5.977-5.976-14.234-9.671-23.354-9.671s-17.377 3.696-23.354 9.671l-214.71 214.71c-5.976 5.977-9.671 14.234-9.671 23.354s3.696 17.377 9.671 23.354l46.708 46.708c5.977 5.976 14.234 9.671 23.354 9.671s17.377-3.696 23.354-9.671l144.879-144.879 309.777 309.843c5.977 5.976 14.234 9.671 23.354 9.671s17.377-3.696 23.354-9.671l46.708-46.708c5.976-5.977 9.671-14.234 9.671-23.354s-3.696-17.377-9.671-23.354v0z"/>
<glyph unicode="" glyph-name="padlock" d="M783.999 525.080v161.915c0.003 0.464 0.005 1.014 0.005 1.564 0 75.759-31.023 144.273-81.058 193.53l-0.035 0.034c-47.639 48.075-113.677 77.849-186.669 77.877h-3.506c-149.74-0.869-270.792-122.457-270.792-272.318 0-0.226 0-0.452 0.001-0.678v0.035-161.915c-55.205-6.749-97.543-53.34-97.543-109.819 0-0.506 0.003-1.010 0.010-1.514l-0.001 0.076v-363.809c-0.001-0.214-0.002-0.467-0.002-0.721 0-61.589 49.7-111.569 111.181-112.024h514.966c61.525 0.455 111.224 50.436 111.224 112.024 0 0.25-0.001 0.5-0.002 0.75v-0.039 363.818c0.002 0.258 0.003 0.563 0.003 0.868 0 56.675-42.418 103.444-97.238 110.29l-0.544 0.055zM285.127 686.995h0.193c-0.001 0.257-0.002 0.561-0.002 0.865 0 126.094 101.718 228.43 227.576 229.43l0.095 0.001h0.219c0.191 0.001 0.418 0.001 0.645 0.001 61.864 0 117.886-25.015 158.502-65.482l-0.007 0.007c42.051-41.629 68.088-99.365 68.088-163.182 0-0.561-0.002-1.121-0.006-1.681v0.086-162.177h-47.699v162.177c0.004 0.445 0.006 0.972 0.006 1.499 0 50.696-20.649 96.569-53.996 129.667l-0.011 0.011c-31.774 31.851-75.691 51.575-124.216 51.638h-1.316c-99.765-0.663-180.384-81.692-180.384-181.551 0-0.352 0.001-0.704 0.003-1.055v0.054-162.44h-47.699zM649.584 686.995v-162.177h-273.189v162.221c-0.003 0.326-0.004 0.712-0.004 1.098 0 75.887 61.224 137.473 136.972 138.061h1.36c36.675-0.065 69.857-14.968 93.874-39.024l0.002-0.002c25.32-25.295 40.983-60.254 40.983-98.871 0-0.444-0.002-0.887-0.006-1.33v0.068zM840.38 49.358v0c-0.010-37.955-30.776-68.721-68.73-68.731h-515.152c-37.955 0.010-68.721 30.776-68.731 68.73v363.416c0.010 37.955 30.776 68.721 68.73 68.731h515.134c37.955-0.010 68.721-30.776 68.731-68.73v-0.001zM588.004 244.53c-9.682 32.942-39.64 56.583-75.12 56.583-43.165 0-78.157-34.992-78.157-78.157 0-35.48 23.641-65.438 56.030-74.981l0.553-0.14v-60.705c0-11.973 9.706-21.679 21.679-21.679s21.679 9.706 21.679 21.679v0 60.705c32.856 9.658 56.436 39.538 56.436 74.926 0 7.756-1.133 15.248-3.242 22.319l0.141-0.552zM512.989 188.158c-19.277 0-34.904 15.627-34.904 34.904s15.627 34.904 34.904 34.904c19.277 0 34.904-15.627 34.904-34.904v0c0-0.003 0-0.006 0-0.009 0-19.267-15.619-34.886-34.886-34.886-0.006 0-0.012 0-0.018 0h0.001z"/>
<glyph unicode="" glyph-name="pdf" d="M877.292 734.169l-209.723 209.841c-3.792 3.796-9.034 6.144-14.823 6.144-0.050 0-0.1 0-0.151-0.001h-440.666c-46.334-0.045-83.884-37.594-83.929-83.924v-839.369c0.045-46.334 37.594-83.884 83.924-83.929h587.583c46.334 0.045 83.884 37.594 83.929 83.924v692.464c0 0.007 0 0.016 0 0.025 0 5.789-2.348 11.030-6.144 14.823v0zM673.595 878.513l138.201-138.201h-96.256c-23.178 0.022-41.962 18.806-41.984 41.982v0.002zM841.452 26.86c-0.022-23.178-18.806-41.962-41.982-41.984h-587.542c-23.178 0.022-41.962 18.806-41.984 41.982v839.367c0.022 23.178 18.806 41.962 41.982 41.984h419.685v-126.031c0.045-46.334 37.594-83.884 83.924-83.929h126.035zM612.706 334.139c-18.449 14.315-34.803 28.496-50.36 43.499l0.184-0.176c-15.99 15.99-30.208 31.508-42.614 46.238 12.464 30.878 22.176 66.888 27.477 104.316l0.29 2.495c0 69.671-25.167 83.929-63.015 83.929-28.711 0-63.015-14.927-63.015-85.937 4.966-44.125 23.531-83.186 51.342-113.664l-0.142 0.158c-8.31-25.403-18.078-54.666-29.066-87.67-5.278-15.754-11.028-30.523-17.093-44.071-4.923-2.206-9.728-4.411-14.375-6.735-16.699-8.35-32.532-15.754-47.262-22.804-66.954-31.705-111.262-52.697-111.262-94.129 0-30.090 32.689-48.719 63.015-48.719 39.030 0 97.95 52.106 140.958 139.894 40.652 15.59 89.023 29.068 138.939 38.108l5.091 0.765c25.656-23.565 56.684-41.718 91.006-52.397l1.705-0.457c52.027 0 63.015 30.090 63.015 55.138 0 49.625-56.674 49.625-83.929 49.625-22.653-1.37-43.544-4.006-63.991-7.895l3.103 0.491zM316.849 152.773c-0.28-0.009-0.61-0.013-0.941-0.013-7.571 0-14.549 2.537-20.13 6.807l0.080-0.059c0 14.887 44.347 35.919 87.276 56.241l8.31 3.938c-31.508-45.765-62.7-66.954-74.516-66.954zM463.754 528.463c0 43.993 13.666 43.993 20.992 43.993 14.848 0 20.992 0 20.992-41.984-3.765-24.714-9.586-46.787-17.46-67.86l0.761 2.324c-13.456 17.654-22.531 39.325-25.23 62.934l-0.055 0.594zM479.823 302.907q1.969 5.474 3.938 11.067c7.877 23.355 14.809 44.347 21.031 63.252q13.076-14.375 28.16-29.46c3.938-3.938 13.706-12.8 26.663-23.867-26.073-5.671-53.642-12.642-79.793-20.992zM715.54 291.998c0-9.413 0-13.351-19.456-13.47-13.459 5.558-25.074 12.314-35.618 20.397l0.369-0.272c5.908 0.67 10.279 0.985 12.761 0.985 30.996 0 39.818-3.033 41.984-7.641z"/>
<glyph unicode="" glyph-name="phone-fill" d="M778.44 282.659c-13.226 15.206-32.607 24.764-54.219 24.764s-40.993-9.558-54.145-24.677l-0.074-0.087c-25.352-25.167-50.703-50.272-75.623-75.87-2.724-3.964-7.233-6.529-12.341-6.529-3.209 0-6.182 1.013-8.616 2.736l0.047-0.031c-16.408 8.944-33.864 16.223-49.346 25.969-73.471 48.060-136.083 105.296-188.376 171.099l-1.238 1.614c-26.593 31.368-49.322 67.239-66.711 106.026l-1.14 2.845c-1.317 2.24-2.095 4.935-2.095 7.811 0 4.945 2.3 9.353 5.888 12.212l0.032 0.024c25.352 24.673 50.087 49.346 75.007 74.822 16.008 13.31 26.125 33.231 26.125 55.515s-10.117 42.204-26.008 55.42l-0.117 0.095c-19.8 20.047-39.662 39.662-59.462 59.647s-40.711 41.143-61.375 61.375c-13.302 15.059-32.657 24.507-54.219 24.507s-40.917-9.448-54.152-24.43l-0.067-0.078c-25.598-25.167-50.087-50.95-76.055-75.623-22.437-21.078-36.964-50.35-38.784-83.013l-0.014-0.321c-0.254-5.011-0.399-10.88-0.399-16.782 0-48.901 9.943-95.48 27.918-137.825l-0.872 2.312c41.010-104.924 96.346-195.284 164.783-273.943l-0.953 1.119c91.271-108.923 203.075-197.359 329.875-260.058l5.927-2.65c53.929-28.929 117.143-48.273 184.246-53.974l1.79-0.123c4.682-0.57 10.103-0.895 15.599-0.895 40.308 0 76.529 17.494 101.486 45.304l0.112 0.127c21.712 24.303 46.262 46.447 69.27 69.702 15.547 13.372 25.332 33.067 25.332 55.048 0 21.952-9.759 41.625-25.176 54.916l-0.094 0.079q-60.573 61.19-121.762 121.824zM737.852 452.472l78.646 13.447c-26.722 150.931-146.365 267.505-296.705 289.314l-1.902 0.226-11.103-79.078c117.811-16.958 210.409-107.175 230.762-222.329l0.241-1.643zM860.787 794.196c-86.872 87.441-201.385 147.326-329.331 165.447l-3.079 0.357-11.103-79.078c218.225-31.509 389.749-198.564 427.631-411.827l0.449-3.053 78.646 13.447c-21.822 124.046-80.094 231.815-163.2 314.694l-0.013 0.013z"/>
<glyph unicode="" glyph-name="right-arrow" d="M15.701 403.854v0l221.867-277.049c10.396-10.995 25.083-17.839 41.37-17.839 31.419 0 56.889 25.47 56.889 56.889 0 11.734-3.553 22.639-9.641 31.696l0.129-0.204-152.462 190.009h791.893c31.419 0 56.889 25.47 56.889 56.889s-25.47 56.889-56.889 56.889v0h-791.893l153.6 192.284c9.611 10.165 15.519 23.917 15.519 39.050 0 31.419-25.47 56.889-56.889 56.889-19.685 0-37.034-9.998-47.248-25.193l-0.129-0.204-221.867-277.049c-10.393-10.311-16.828-24.6-16.828-40.391s6.434-30.080 16.824-40.387l0.004-0.004z"/>
<glyph unicode="" d="M292.571 960c403.957 0 731.429-327.472 731.429-731.429v0c0-161.583-130.989-292.571-292.571-292.571v0h-438.857c-161.583 0-292.571 130.989-292.571 292.571v0 438.857c0 161.583 130.989 292.571 292.571 292.571v0z"/>
<glyph unicode="" d="M700.318 442.539v0l-95.086 118.735c-4.455 4.712-10.75 7.645-17.73 7.645-13.465 0-24.381-10.916-24.381-24.381 0-5.029 1.523-9.702 4.132-13.584l-0.055 0.087 65.341-81.432h-339.383c-13.465 0-24.381-10.916-24.381-24.381s10.916-24.381 24.381-24.381v0h339.383l-65.829-82.408c-4.119-4.356-6.651-10.25-6.651-16.736 0-13.465 10.916-24.381 24.381-24.381 8.436 0 15.872 4.285 20.249 10.797l0.055 0.087 95.086 118.735c4.454 4.419 7.212 10.543 7.212 17.31s-2.757 12.891-7.21 17.309l-0.002 0.002z"/>
<glyph unicode="" glyph-name="share" d="M812.783 640.034c-88.375 0-160.017 71.642-160.017 160.017s71.642 160.017 160.017 160.017c88.375 0 160.017-71.642 160.017-160.017v0c-0.116-88.328-71.689-159.901-160.006-160.017h-0.011zM812.783 896.034c-53.010 0-95.983-42.973-95.983-95.983s42.973-95.983 95.983-95.983c53.010 0 95.983 42.973 95.983 95.983v0c-0.078 52.979-43.004 95.905-95.975 95.983h-0.008zM812.783-63.932c-88.375 0-160.017 71.642-160.017 160.017s71.642 160.017 160.017 160.017c88.375 0 160.017-71.642 160.017-160.017v0c-0.116-88.328-71.689-159.901-160.006-160.017h-0.011zM812.783 192.068c-53.010 0-95.983-42.973-95.983-95.983s42.973-95.983 95.983-95.983c53.010 0 95.983 42.973 95.983 95.983v0c-0.116 52.949-43.028 95.837-95.975 95.915h-0.008zM194.15 288.051c-88.375 0-160.017 71.642-160.017 160.017s71.642 160.017 160.017 160.017c88.375 0 160.017-71.642 160.017-160.017v0c-0.116-88.328-71.689-159.901-160.006-160.017h-0.011zM194.15 544.051c-53.010 0-95.983-42.973-95.983-95.983s42.973-95.983 95.983-95.983c53.010 0 95.983 42.973 95.983 95.983v0c-0.078 52.979-43.004 95.905-95.975 95.983h-0.008zM305.493 479.403c-0.076-0.001-0.167-0.001-0.257-0.001-17.645 0-31.949 14.304-31.949 31.949 0 11.895 6.5 22.272 16.143 27.771l0.157 0.083 395.947 225.69c4.225 2.197 9.226 3.486 14.528 3.486 17.683 0 32.017-14.335 32.017-32.017 0-11.32-5.875-21.268-14.742-26.961l-0.127-0.077-395.947-225.69c-4.535-2.613-9.971-4.157-15.767-4.164h-0.002zM701.372 127.147c-5.807 0.009-11.245 1.58-15.919 4.314l0.15-0.081-395.947 225.69c-8.994 5.77-14.869 15.718-14.869 27.038 0 17.683 14.335 32.017 32.017 32.017 5.302 0 10.302-1.289 14.706-3.57l-0.178 0.084 395.947-225.69c9.693-5.626 16.108-15.956 16.108-27.785 0-17.657-14.294-31.976-31.942-32.017h-0.004z"/>
<glyph unicode="" glyph-name="user" d="M684.218 460.893c65.432 51.592 107.055 130.86 107.055 219.85 0 154.238-125.035 279.273-279.273 279.273s-279.273-125.035-279.273-279.273c0-88.99 41.623-168.259 106.462-219.4l0.592-0.451c-173.129-70.304-293.029-237.095-293.236-431.916v-46.571c0-25.706 20.839-46.545 46.545-46.545s46.545 20.839 46.545 46.545v0 46.545c0 205.651 166.713 372.364 372.364 372.364s372.364-166.713 372.364-372.364v0-46.545c0-25.706 20.839-46.545 46.545-46.545s46.545 20.839 46.545 46.545v0 46.545c-0.207 194.847-120.107 361.637-290.123 430.821l-3.114 1.12zM325.818 680.588c0 102.825 83.356 186.182 186.182 186.182s186.182-83.356 186.182-186.182c0-102.825-83.356-186.182-186.182-186.182v0c-102.825 0-186.182 83.356-186.182 186.182v0z"/>
<glyph unicode="" glyph-name="warning" d="M467.2 561.152c0 23.569 19.106 42.675 42.675 42.675s42.675-19.106 42.675-42.675v0-252.621c0-23.569-19.106-42.675-42.675-42.675s-42.675 19.106-42.675 42.675v0zM563.2 166.861c0-29.465-23.886-53.35-53.35-53.35s-53.35 23.886-53.35 53.35c0 29.465 23.886 53.35 53.35 53.35s53.35-23.886 53.35-53.35zM517.939 774.758c-1.423 2.861-4.326 4.792-7.68 4.792s-6.257-1.931-7.658-4.742l-0.022-0.050-346.88-700.877c-0.574-1.118-0.911-2.44-0.911-3.84 0-4.722 3.828-8.55 8.55-8.55 0.014 0 0.028 0 0.043 0h697.598c0.012 0 0.026 0 0.040 0 4.722 0 8.55 3.828 8.55 8.55 0 1.4-0.337 2.722-0.933 3.888l0.022-0.048zM464.179 889.651c8.564 17.004 25.881 28.464 45.875 28.464s37.311-11.461 45.741-28.171l0.134-0.293 419.84-839.27c2.947-6.267 4.667-13.612 4.667-21.358 0-27.974-22.434-50.708-50.292-51.192l-0.045-0.001h-835.379c-0.121-0.001-0.264-0.002-0.407-0.002-28.051 0-50.79 22.74-50.79 50.79 0 8.409 2.043 16.34 5.661 23.325l-0.133-0.283z"/>
<glyph unicode="" glyph-name="winner" d="M606.058 836.845c-1.362 0.331-2.926 0.521-4.535 0.521-11.047 0-20.002-8.955-20.002-20.002 0-9.328 6.386-17.165 15.025-19.377l0.139-0.030c159.18-39.49 275.306-181.129 275.306-349.891 0-198.819-161.175-359.994-359.994-359.994s-359.994 161.175-359.994 359.994c0 168.761 116.125 310.4 272.828 349.37l2.477 0.521c8.777 2.242 15.163 10.079 15.163 19.407 0 11.047-8.955 20.002-20.002 20.002-1.608 0-3.172-0.19-4.671-0.548l0.136 0.027c-88.981-22.18-164.152-71.617-218.172-138.785l-0.606-0.779c-54.295-67.173-87.161-153.621-87.161-247.746 0-0.538 0.001-1.075 0.003-1.613v0.083c0-220.912 179.085-399.997 399.997-399.997s399.997 179.085 399.997 399.997v0c0.002 0.453 0.003 0.989 0.003 1.525 0 94.116-32.859 180.557-87.731 248.477l0.587-0.751c-54.627 67.96-129.805 117.406-216.025 139.002l-2.77 0.587zM1011.951 496.109l-23.429 43.653 3.898 53.968c0.397 3.378 0.623 7.292 0.623 11.259 0 31.819-14.557 60.238-37.375 78.961l-0.179 0.142-38.814 31.811-15.278 46.023c-8.874 35.445-35.272 63.164-69.227 73.749l-0.728 0.196-47.939 14.485-36.741 42.439c-18.891 22.121-46.808 36.056-77.98 36.056-3.514 0-6.987-0.177-10.41-0.523l0.431 0.035-49.756-4.955-48.922 24.535c-13.925 7.593-30.5 12.057-48.117 12.057s-34.192-4.465-48.653-12.324l0.537 0.267-43.645-23.396-53.968 3.906c-3.368 0.394-7.27 0.619-11.224 0.619-31.845 0-60.284-14.583-79.003-37.435l-0.144-0.181-31.803-38.814-46.023-15.278c-35.448-8.871-63.17-35.27-73.757-69.227l-0.196-0.728-14.485-47.939-42.431-36.708c-22.122-18.888-36.057-46.803-36.057-77.973 0-3.519 0.178-6.997 0.524-10.425l-0.035 0.431 4.955-49.756-24.535-48.914c-7.593-13.925-12.057-30.5-12.057-48.117s4.465-34.192 12.324-48.653l-0.267 0.537 23.387-43.653-3.898-53.968c-0.395-3.374-0.621-7.283-0.621-11.244 0-31.831 14.567-60.259 37.397-78.983l0.179-0.143 38.855-31.803 15.278-46.023c8.872-35.445 35.271-63.165 69.227-73.749l0.728-0.196 47.939-14.485 36.716-42.439c18.887-22.122 46.801-36.058 77.97-36.058 3.521 0 7 0.178 10.429 0.525l-0.432-0.035 49.756 4.955 48.914-24.535c13.925-7.593 30.5-12.057 48.117-12.057s34.192 4.465 48.653 12.324l-0.537-0.267 43.653 23.396 53.968-3.906c3.362-0.393 7.258-0.617 11.206-0.617 31.84 0 60.276 14.571 79.005 37.409l0.143 0.18 31.803 38.814 46.023 15.278c35.445 8.872 63.165 35.271 73.749 69.227l0.196 0.728 14.485 47.939 42.439 36.716c22.122 18.89 36.057 46.806 36.057 77.977 0 3.518-0.178 6.995-0.524 10.421l0.035-0.431-4.955 49.756 24.535 48.914c7.592 13.925 12.056 30.5 12.056 48.117s-4.464 34.191-12.323 48.654l0.267-0.537zM976.565 418.539l-0.256-0.495-27.252-54.331c-1.338-2.612-2.122-5.698-2.122-8.967 0-0.698 0.036-1.389 0.106-2.069l-0.007 0.085 5.533-55.504c0.187-1.812 0.293-3.914 0.293-6.042 0-19.056-8.542-36.117-22.006-47.563l-0.089-0.074-46.956-40.622c-2.803-2.432-4.908-5.598-6.024-9.198l-0.038-0.142-16.161-53.489c-6.636-21.34-23.793-37.542-45.249-42.707l-0.428-0.087c-0.595-0.14-1.181-0.306-1.759-0.495l-52.349-17.342c-3.699-1.251-6.808-3.435-9.147-6.275l-0.027-0.034-35.511-43.331c-11.505-14.028-28.839-22.908-48.246-22.908-2.496 0-4.958 0.147-7.377 0.433l0.293-0.028-0.826 0.074-60.12 4.344c-0.433 0.033-0.937 0.052-1.445 0.052-3.46 0-6.714-0.879-9.552-2.425l0.105 0.052-48.724-26.113c-8.466-4.61-18.542-7.321-29.25-7.321-10.795 0-20.946 2.754-29.789 7.599l0.323-0.162-0.495 0.256-54.331 27.252c-2.612 1.338-5.699 2.122-8.968 2.122 0 0 0 0 0 0v0q-0.991 0-1.982-0.099l-55.504-5.533c-1.814-0.187-3.919-0.294-6.049-0.294-19.054 0-36.113 8.543-47.556 22.007l-0.074 0.089-40.622 46.956c-2.432 2.803-5.598 4.909-9.199 6.024l-0.142 0.038-53.431 16.145c-21.339 6.633-37.541 23.787-42.707 45.241l-0.087 0.428q-0.206 0.892-0.495 1.759l-17.342 52.349c-1.249 3.7-3.434 6.808-6.275 9.147l-0.034 0.027-43.331 35.511c-14.028 11.503-22.909 28.836-22.909 48.243 0 2.497 0.147 4.961 0.433 7.381l-0.028-0.293c0 0.264 0.058 0.529 0.074 0.826l4.352 60.128c0.033 0.432 0.052 0.936 0.052 1.443 0 3.46-0.879 6.715-2.425 9.554l0.052-0.105-26.121 48.724c-4.609 8.467-7.319 18.542-7.319 29.25 0 10.794 2.754 20.945 7.597 29.789l-0.162-0.324 0.256 0.487 27.252 54.331c1.338 2.611 2.122 5.696 2.122 8.964 0 0.7-0.036 1.391-0.106 2.072l0.007-0.085-5.533 55.504c-0.187 1.812-0.293 3.914-0.293 6.042 0 19.056 8.542 36.117 22.006 47.563l0.089 0.074 46.956 40.622c2.78 2.42 4.872 5.561 5.99 9.132l0.038 0.142 16.161 53.489c6.631 21.354 23.797 37.567 45.265 42.732l0.428 0.087q0.892 0.206 1.759 0.495l52.349 17.342c3.7 1.249 6.808 3.434 9.147 6.275l0.027 0.034 35.511 43.331c11.506 14.023 28.838 22.9 48.244 22.9 2.497 0 4.96-0.147 7.38-0.433l-0.293 0.028 0.826-0.074 60.12-4.352c0.427-0.032 0.925-0.051 1.427-0.051 3.466 0 6.726 0.878 9.571 2.424l-0.106-0.053 48.724 26.113c8.465 4.608 18.539 7.318 29.246 7.318 10.793 0 20.942-2.753 29.785-7.596l-0.323 0.162 0.495-0.256 54.331-27.252c2.61-1.338 5.694-2.123 8.961-2.123 0.701 0 1.393 0.036 2.075 0.106l-0.085-0.007 55.504 5.533c1.813 0.187 3.917 0.294 6.046 0.294 19.055 0 36.115-8.542 47.559-22.006l0.074-0.089 40.622-46.956c2.433-2.802 5.598-4.908 9.198-6.024l0.142-0.038 53.489-16.161c21.339-6.637 37.54-23.793 42.707-45.249l0.087-0.428q0.206-0.892 0.495-1.759l17.342-52.349c1.25-3.7 3.434-6.808 6.275-9.147l0.034-0.027 43.331-35.511c14.024-11.502 22.901-28.831 22.901-48.233 0-2.501-0.147-4.967-0.434-7.391l0.028 0.294c0-0.264-0.058-0.529-0.074-0.826l-4.352-60.128c-0.033-0.431-0.052-0.933-0.052-1.44 0-3.461 0.879-6.718 2.425-9.558l-0.052 0.105 26.121-48.724c4.61-8.467 7.32-18.542 7.32-29.25 0-10.794-2.754-20.946-7.598-29.789l0.162 0.323zM425.21 556.972c-3.277 6.819-10.129 11.443-18.060 11.446h-105.706c-11.047 0-20.002-8.955-20.002-20.002v0-302.731c0-11.047 8.955-20.002 20.002-20.002h105.706c0.001 0 0.001 0 0.002 0 8.24 0 15.317 4.983 18.38 12.101l0.050 0.13c18.536-3.099 34.475-6.922 49.988-11.714l-2.685 0.714c22.598-7.625 48.707-12.595 75.793-13.819l0.621-0.022h115.459c0.83-0.031 1.804-0.048 2.783-0.048 33.665 0 62.486 20.737 74.388 50.134l0.192 0.538c3.594 8.26 5.684 17.883 5.684 27.994 0 5.998-0.736 11.824-2.122 17.392l0.104-0.494c6.751 6.136 12.295 13.459 16.328 21.659l0.188 0.424c5.093 9.945 8.078 21.695 8.078 34.142 0 7.067-0.962 13.909-2.762 20.402l0.127-0.535c13.474 13.537 21.804 32.206 21.804 52.819 0 6.225-0.76 12.273-2.191 18.056l0.108-0.515c18.164 10.601 30.175 29.997 30.175 52.199 0 17.139-7.158 32.606-18.648 43.575l-0.023 0.022c-11.177 10.577-26.303 17.080-42.949 17.080-0.152 0-0.304-0.001-0.455-0.002h-162.731c-7.797 9.337-12.531 21.466-12.531 34.701 0 6.748 1.231 13.209 3.48 19.17l-0.124-0.374c14.444 34.776 13.552 64.208-2.899 95.433-12.214 23.181-45.049 46.246-72.673 42.315-16.572-2.31-29.589-15.072-32.26-31.319l-0.030-0.219c-0.909-5.024-1.504-10.895-1.649-16.878l-0.003-0.143c-0.172-23.189-5.902-45.001-15.921-64.222l0.371 0.782c-7.339-15.095-12.63-32.623-14.938-51.078l-0.084-0.826c-3.89-22.983-5.781-34.049-18.391-38.294zM321.478 528.415h65.67v-262.687h-65.67zM483.042 588.585c1.75 14.857 5.643 28.398 11.388 40.912l-0.347-0.843c12.184 23.209 19.535 50.631 20.032 79.724l0.002 0.158c0.108 4.031 0.435 7.87 0.971 11.643l-0.062-0.535v0.041c12.925-2.799 23.646-10.619 30.225-21.27l0.116-0.202c10.959-20.794 11.322-37.443 1.354-61.441-4.061-10.020-6.418-21.643-6.418-33.816 0-12.716 2.572-24.832 7.223-35.855l-0.227 0.606c-9.821-1.37-17.298-9.714-17.298-19.804 0-11.037 8.948-19.985 19.985-19.985 0.031 0 0.062 0 0.092 0h205.494c0.111 0.002 0.241 0.003 0.372 0.003 5.966 0 11.395-2.3 15.449-6.061l-0.014 0.013c3.865-3.714 6.267-8.926 6.267-14.7 0-0.189-0.003-0.377-0.008-0.565l0.001 0.028c-0.691-11.323-10.037-20.246-21.47-20.258h-0.001l-51.474-1.123c-10.803-0.312-19.442-9.144-19.442-19.994 0-11.001 8.881-19.927 19.864-20.001h0.453l42.869 0.933c0.774-2.644 1.219-5.681 1.219-8.823 0-4.077-0.75-7.979-2.12-11.575l0.075 0.223c-3.209-11.454-13.556-19.714-25.832-19.714-0.113 0-0.226 0.001-0.339 0.002h0.017c-11.047 0-20.002-8.955-20.002-20.002s8.955-20.002 20.002-20.002v0c0.007 0 0.016 0 0.025 0 3.135 0 6.223 0.204 9.251 0.6l-0.357-0.038c0.014-0.39 0.022-0.849 0.022-1.31 0-6.312-1.493-12.274-4.146-17.554l0.103 0.225c-4.143-9.724-13.613-16.419-24.649-16.434h-0.002c-11.047 0-20.002-8.955-20.002-20.002s8.955-20.002 20.002-20.002v0q3.105 0 6.136 0.273c-0.127-5.042-1.224-9.795-3.109-14.126l0.094 0.244c-6.303-14.906-20.804-25.174-37.703-25.174-0.835 0-1.665 0.025-2.488 0.075l0.113-0.005h-115.451c-23.926 1.335-46.351 5.767-67.528 12.912l1.793-0.525c-15.729 5.014-34.776 9.405-54.303 12.326l-2.109 0.259v238.449c45.032 8.159 51.234 44.611 55.892 72.128zM512.004 807.998c11.047 0 20.002 8.955 20.002 20.002s-8.955 20.002-20.002 20.002v0c-11.047 0-20.002-8.955-20.002-20.002s8.955-20.002 20.002-20.002v0z"/>
<glyph unicode="" glyph-name="checkbox" d="M917.339-64h-810.667c-58.888 0.053-106.613 47.774-106.672 106.656v810.673c0.053 58.892 47.78 106.619 106.667 106.672h810.672c58.887-0.059 106.609-47.784 106.661-106.667v-810.672c-0.059-58.884-47.778-106.603-106.656-106.661h-0.006zM106.672 917.333c-35.316-0.076-63.924-28.688-63.995-63.998v-810.674c0.070-35.321 28.684-63.935 63.998-64.005h810.663c35.317 0.070 63.929 28.679 64.005 63.988v810.684c-0.076 35.313-28.682 63.918-63.988 63.995h-0.007zM362.661 490.667h-170.656c-35.321 0.070-63.935 28.684-64.005 63.998v170.674c0.076 35.316 28.688 63.924 63.998 63.995h170.674c35.321-0.070 63.935-28.684 64.005-63.998v-170.674c-0.076-35.32-28.694-63.93-64.009-63.995h-0.006zM192.005 746.667c-11.771-0.035-21.303-9.568-21.338-21.335v-170.67c0.041-11.766 9.571-21.293 21.335-21.328h170.67c11.771 0.035 21.303 9.568 21.338 21.335v170.67c-0.041 11.766-9.571 21.293-21.335 21.328h-0.003zM874.661 704h-298.667c-0.14-0.003-0.305-0.005-0.47-0.005-11.785 0-21.339 9.554-21.339 21.339s9.554 21.339 21.339 21.339c0.165 0 0.33-0.002 0.494-0.006h298.643c0.14 0.003 0.305 0.005 0.47 0.005 11.785 0 21.339-9.554 21.339-21.339s-9.554-21.339-21.339-21.339c-0.165 0-0.33 0.002-0.494 0.006h0.024zM874.661 533.333h-298.667c-11.782 0-21.333 9.551-21.333 21.333s9.551 21.333 21.333 21.333v0h298.667c11.782 0 21.333-9.551 21.333-21.333s-9.551-21.333-21.333-21.333v0zM277.328 576c-0.005 0-0.012 0-0.018 0-5.883 0-11.212 2.37-15.085 6.208l-85.362 85.311c-3.782 3.846-6.117 9.126-6.117 14.951 0 11.779 9.549 21.328 21.328 21.328 5.825 0 11.105-2.335 14.954-6.12l70.27-70.229 198.263 198.325c3.861 3.856 9.192 6.241 15.081 6.241 11.787 0 21.342-9.555 21.342-21.342 0-5.899-2.393-11.238-6.261-15.101v0l-213.333-213.333c-3.845-3.835-9.151-6.206-15.011-6.206-0.017 0-0.035 0-0.052 0h0.003zM362.661 64h-170.656c-35.317 0.070-63.929 28.679-64.005 63.988v170.674c0.070 35.321 28.684 63.935 63.998 64.005h170.674c35.321-0.070 63.935-28.684 64.005-63.998v-170.674c-0.076-35.32-28.694-63.93-64.009-63.995h-0.006zM191.995 320c-11.767-0.035-21.297-9.562-21.338-21.324v-170.671c0.035-11.774 9.574-21.309 21.346-21.338h170.67c11.767 0.035 21.297 9.562 21.338 21.324v170.671c-0.041 11.766-9.571 21.293-21.335 21.328h-0.003zM874.661 277.333h-298.667c-11.782 0-21.333 9.551-21.333 21.333s9.551 21.333 21.333 21.333v0h298.667c11.782 0 21.333-9.551 21.333-21.333s-9.551-21.333-21.333-21.333v0zM874.661 106.667h-298.667c-11.782 0-21.333 9.551-21.333 21.333s9.551 21.333 21.333 21.333v0h298.667c11.782 0 21.333-9.551 21.333-21.333s-9.551-21.333-21.333-21.333v0z"/>
<glyph unicode="" glyph-name="switzerland" d="M1001.74 960h-979.507c-12.294 0-22.26-9.966-22.26-22.26s9.966-22.26 22.26-22.26v0c36.861-0.053 66.728-29.92 66.781-66.776v-801.393c0-12.279 9.954-22.232 22.232-22.232v0h311.709c36.861-0.053 66.728-29.92 66.781-66.776v-0.005c0-12.294 9.966-22.26 22.26-22.26s22.26 9.966 22.26 22.26v0c0.053 36.861 29.92 66.728 66.776 66.781h311.667c12.279 0 22.232 9.954 22.232 22.232v0 801.388c0.053 36.861 29.92 66.728 66.776 66.781h0.005c12.294 0 22.26 9.966 22.26 22.26s-9.966 22.26-22.26 22.26v0zM912.736 915.479c-13.924-18.314-22.307-41.502-22.307-66.648 0-0.047 0-0.094 0-0.14v0.007-22.232h-756.83v22.232c0 0.025 0 0.054 0 0.084 0 25.162-8.382 48.366-22.506 66.972l0.2-0.275zM601.046 69.562c0 0 0 0 0 0-36.308 0-68.55-17.407-88.837-44.33l-0.204-0.283c-20.498 27.198-52.736 44.601-89.039 44.613h-289.404v712.366h756.83v-712.366zM734.607 559.306h-111.301v111.329c0 12.279-9.954 22.232-22.232 22.232h-178.119c-12.279 0-22.232-9.954-22.232-22.232v0-111.301h-111.357c-12.279 0-22.232-9.954-22.232-22.232v0-178.091c0-12.279 9.954-22.232 22.232-22.232v0h111.301v-111.301c0-12.279 9.954-22.232 22.232-22.232v0h178.091c12.279 0 22.232 9.954 22.232 22.232v0 111.218h111.301c12.279 0 22.232 9.954 22.232 22.232v178.119c0 0.008 0 0.018 0 0.028 0 12.249-9.906 22.185-22.145 22.232h-0.005zM712.375 381.215h-111.329c-12.279 0-22.232-9.954-22.232-22.232v0-111.301h-133.589v111.274c0 12.279-9.954 22.232-22.232 22.232v0h-111.338v133.589h111.301c12.279 0 22.232 9.954 22.232 22.232v0 111.338h133.562v-111.301c0-12.279 9.954-22.232 22.232-22.232h111.301z"/>
<glyph unicode="" glyph-name="lamp" d="M576.004-64.008h-127.999c-29.864 0-63.999 25.601-63.999 76.796v89.609c0 42.669-21.33 81.067-55.457 110.915-70.378 54.449-115.254 138.925-115.254 233.883 0 1.781 0.016 3.557 0.047 5.33l-0.004-0.266c4.966 160.559 133.846 289.439 293.94 294.393l0.464 0.011c1.128 0.015 2.461 0.024 3.795 0.024 81.568 0 155.529-32.568 209.59-85.409l-0.057 0.055c54.867-54.553 89.007-129.901 89.6-213.224l0.001-0.113c0.016-1.121 0.025-2.444 0.025-3.769 0-91.856-43.161-173.631-110.308-226.151l-0.631-0.476c-35.706-28.129-58.706-71.010-59.734-119.297l-0.003-0.168v-98.143c-0.882-34.986-29.014-63.118-63.916-63.998l-0.083-0.002zM512.004 703.994c-136.574 0-251.735-115.202-255.998-251.735 0-81.067 34.135-157.863 98.135-204.803 46.932-38.398 72.533-89.601 72.533-145.067v-89.593c0-8.534 0-34.135 21.33-34.135h127.999c0.362-0.023 0.785-0.036 1.212-0.036 11.131 0 20.155 9.024 20.155 20.155 0 0.426-0.013 0.85-0.039 1.269l0.003-0.057v98.135c0 55.457 29.864 115.202 76.804 153.6 57.416 45.975 93.869 116.066 93.869 194.672 0 0.562-0.002 1.123-0.006 1.684v-0.086c0.001 0.309 0.002 0.674 0.002 1.039 0 71.47-29.397 136.074-76.759 182.379l-0.048 0.046c-45.398 44.845-107.822 72.546-176.715 72.546-0.874 0-1.748-0.004-2.62-0.013l0.133 0.001zM618.673 63.999h-213.337c-0.362-0.023-0.786-0.036-1.212-0.036-11.131 0-20.155 9.024-20.155 20.155 0 0.429 0.013 0.855 0.040 1.278l-0.003-0.058c-0.023 0.362-0.036 0.785-0.036 1.212 0 11.131 9.024 20.155 20.155 20.155 0.426 0 0.85-0.013 1.269-0.039l-0.057 0.003h213.337c0.362 0.023 0.785 0.036 1.212 0.036 11.131 0 20.155-9.024 20.155-20.155 0-0.426-0.013-0.85-0.039-1.269l0.003 0.057c0.024-0.365 0.037-0.791 0.037-1.22 0-11.131-9.024-20.155-20.155-20.155-0.427 0-0.85 0.013-1.27 0.039l0.058-0.003zM511.996 832.001c-0.362-0.023-0.785-0.036-1.212-0.036-11.131 0-20.155 9.024-20.155 20.155 0 0.426 0.013 0.85 0.039 1.269l-0.003-0.057v85.338c-0.023 0.362-0.036 0.785-0.036 1.212 0 11.131 9.024 20.155 20.155 20.155 0.426 0 0.85-0.013 1.269-0.039l-0.057 0.003c0.362 0.023 0.785 0.036 1.212 0.036 11.131 0 20.155-9.024 20.155-20.155 0-0.426-0.013-0.85-0.039-1.269l0.003 0.057v-85.338c0.023-0.362 0.036-0.785 0.036-1.212 0-11.131-9.024-20.155-20.155-20.155-0.426 0-0.85 0.013-1.269 0.039l0.057-0.003zM797.866 712.528c-0.808-0.090-1.744-0.142-2.693-0.142-5.365 0-10.345 1.646-14.463 4.461l0.088-0.057c-3.946 3.763-6.4 9.061-6.4 14.932s2.454 11.169 6.392 14.924l59.745 59.753c3.763 3.946 9.061 6.4 14.932 6.4s11.169-2.454 14.924-6.392l0.008-0.008c3.946-3.763 6.4-9.061 6.4-14.932s-2.454-11.169-6.392-14.924l-59.745-59.745c-3.703-1.967-8.001-3.453-12.543-4.227l-0.254-0.036zM1002.67 426.665h-85.338c-0.362-0.023-0.786-0.036-1.212-0.036-11.131 0-20.155 9.024-20.155 20.155 0 0.429 0.013 0.855 0.040 1.278l-0.003-0.058c-0.023 0.362-0.036 0.785-0.036 1.212 0 11.131 9.024 20.155 20.155 20.155 0.426 0 0.85-0.013 1.269-0.039l-0.057 0.003h85.338c0.362 0.023 0.785 0.036 1.212 0.036 11.131 0 20.155-9.024 20.155-20.155 0-0.426-0.013-0.85-0.039-1.269l0.003 0.057c0.024-0.365 0.037-0.791 0.037-1.22 0-11.131-9.024-20.155-20.155-20.155-0.427 0-0.85 0.013-1.27 0.039l0.058-0.003zM857.586 81.058c-0.808-0.090-1.744-0.142-2.693-0.142-5.365 0-10.345 1.646-14.463 4.461l0.088-0.057-59.737 59.737c-3.821 3.821-6.185 9.101-6.185 14.932 0 11.663 9.454 21.117 21.117 21.117 5.831 0 11.111-2.364 14.932-6.185l59.737-59.737c3.946-3.763 6.4-9.061 6.4-14.932s-2.454-11.169-6.392-14.924l-0.008-0.008c0-4.263-4.263-4.263-12.797-4.263zM166.397 81.058c-0.808-0.090-1.744-0.142-2.693-0.142-5.365 0-10.345 1.646-14.463 4.461l0.088-0.057c-3.946 3.763-6.4 9.061-6.4 14.932s2.454 11.169 6.392 14.924l59.745 59.745c3.821 3.821 9.101 6.185 14.932 6.185 11.663 0 21.117-9.454 21.117-21.117 0-5.831-2.364-11.111-6.185-14.932l-59.728-59.728c-2.814-2.711-6.648-4.381-10.871-4.381-0.679 0-1.347 0.043-2.003 0.127l0.078-0.008zM106.669 426.665h-85.338c-0.362-0.023-0.786-0.036-1.212-0.036-11.131 0-20.155 9.024-20.155 20.155 0 0.429 0.013 0.855 0.040 1.278l-0.003-0.058c-0.023 0.362-0.036 0.785-0.036 1.212 0 11.131 9.024 20.155 20.155 20.155 0.426 0 0.85-0.013 1.269-0.039l-0.057 0.003h85.338c0.362 0.023 0.785 0.036 1.212 0.036 11.131 0 20.155-9.024 20.155-20.155 0-0.426-0.013-0.85-0.039-1.269l0.003 0.057c0.024-0.365 0.037-0.791 0.037-1.22 0-11.131-9.024-20.155-20.155-20.155-0.427 0-0.85 0.013-1.27 0.039l0.058-0.003zM226.117 712.536c-0.808-0.090-1.744-0.142-2.693-0.142-5.365 0-10.345 1.646-14.463 4.461l0.088-0.057-59.72 63.999c-3.946 3.763-6.4 9.061-6.4 14.932s2.454 11.169 6.392 14.924l0.008 0.008c3.763 3.946 9.061 6.4 14.932 6.4s11.169-2.454 14.924-6.392l59.745-59.745c3.946-3.763 6.4-9.061 6.4-14.932s-2.454-11.169-6.392-14.924l-0.008-0.008c-4.263-4.263-8.534-8.534-12.797-8.534zM682.697 426.665c-0.372-0.024-0.806-0.038-1.244-0.038-11.131 0-20.155 9.024-20.155 20.155 0 0.418 0.013 0.834 0.038 1.246l-0.003-0.057c-1.009 82.073-67.267 148.339-149.241 149.362l-0.097 0.001c-0.362-0.023-0.786-0.036-1.212-0.036-11.131 0-20.155 9.024-20.155 20.155 0 0.429 0.013 0.855 0.040 1.278l-0.003-0.058c-0.023 0.362-0.036 0.785-0.036 1.212 0 11.131 9.024 20.155 20.155 20.155 0.426 0 0.85-0.013 1.269-0.039l-0.057 0.003c0.246 0.001 0.538 0.002 0.83 0.002 105.599 0 191.204-85.605 191.204-191.204 0-0.292-0.001-0.583-0.002-0.874v0.045c0.022-0.355 0.035-0.769 0.035-1.187 0-11.131-9.024-20.155-20.155-20.155-0.426 0-0.849 0.013-1.268 0.039l0.057-0.003z"/>
<glyph unicode="" glyph-name="archive" d="M977.528 535.61l-180.954 180.714c-3.614 3.614-8.607 5.85-14.122 5.85h-43.275l51.44 51.44c3.617 3.616 5.855 8.612 5.855 14.131s-2.237 10.515-5.855 14.131l-152.273 152.264c-3.618 3.618-8.615 5.855-14.136 5.855s-10.518-2.238-14.136-5.855l-232.181-232.181c-0.815 0.128-1.762 0.205-2.725 0.214h-134.509c-0.004 0-0.008 0-0.012 0-5.519 0-10.514-2.239-14.128-5.859v0l-180.589-180.714c-3.62-3.608-5.859-8.599-5.859-14.113 0-0.006 0-0.012 0-0.019v0.001-564.74c0-11.035 8.946-19.981 19.981-19.981v0h903.4c11.035 0 19.981 8.946 19.981 19.981v0 202.423c0 11.038-8.948 19.986-19.986 19.986s-19.986-8.948-19.986-19.986v0-182.441h-863.419v524.769h863.383v-182.432c0-11.038 8.948-19.986 19.986-19.986s19.986 8.948 19.986 19.986v0 202.423c0 0.001 0 0.002 0 0.003 0 5.523-2.243 10.522-5.868 14.137v0zM575.114 862.649l49.081 49.107 124.029-124.011-155.933-155.933h-164.561l-41.726 41.717zM108.277 541.496l140.653 140.689h90.824c-1.253-2.537-1.985-5.524-1.985-8.681 0-5.511 2.232-10.5 5.841-14.114v0l27.603-27.603h-63.025c-11.038 0-19.986-8.948-19.986-19.986s8.948-19.986 19.986-19.986h407.080c11.038 0 19.986 8.948 19.986 19.986s-8.948 19.986-19.986 19.986h-66.453l50.39 50.399h74.966l140.938-140.689zM335.854 239.104c0-97.13 78.74-175.87 175.87-175.87s175.87 78.74 175.87 175.87c0 97.13-78.74 175.87-175.87 175.87v0c-97.083-0.116-175.753-78.786-175.87-175.859v-0.011zM647.631 239.104c0-75.054-60.844-135.898-135.898-135.898s-135.898 60.844-135.898 135.898c0 75.051 60.839 135.893 135.889 135.898h0.001c75.022-0.086 135.816-60.877 135.907-135.889v-0.009zM463.881 262.451c-3.639 3.755-8.728 6.086-14.363 6.086-11.040 0-19.99-8.95-19.99-19.99 0-5.632 2.329-10.72 6.076-14.353l43.859-43.85c3.616-3.617 8.612-5.855 14.131-5.855s10.515 2.237 14.131 5.855l80.139 80.139c3.616 3.616 5.853 8.613 5.853 14.131 0 11.037-8.947 19.985-19.985 19.985-5.519 0-10.515-2.237-14.131-5.853l-65.99-65.99zM963.406 259.094c-0.005 0-0.010 0-0.015 0-11.050 0-20.008-8.958-20.008-20.008s8.958-20.008 20.008-20.008c11.050 0 20.008 8.958 20.008 20.008 0 5.526-2.24 10.528-5.861 14.149v0c-3.623 3.608-8.614 5.843-14.128 5.859h-0.003z"/>
<glyph unicode="" glyph-name="add" d="M0 450.829c0 0.084-0.001 0.184-0.001 0.284 0 29.253 22.202 53.321 50.675 56.271l0.243 0.020h916.508c31.245 0 56.575-25.329 56.575-56.575s-25.329-56.575-56.575-56.575v0h-916.508c-28.716 2.971-50.918 27.038-50.918 56.291 0 0.1 0 0.199 0.001 0.299v-0.015zM509.171 960c0.084 0 0.184 0.001 0.284 0.001 29.253 0 53.321-22.202 56.271-50.675l0.020-0.243v-916.508c0-31.245-25.329-56.575-56.575-56.575s-56.575 25.329-56.575 56.575v0 916.508c2.971 28.716 27.038 50.918 56.291 50.918 0.1 0 0.199 0 0.299-0.001h-0.015z"/>
<glyph unicode="" glyph-name="add-action" d="M512 960c-282.77 0-512-229.23-512-512s229.23-512 512-512c282.77 0 512 229.23 512 512v0c0 282.77-229.23 512-512 512v0zM512 9.15c-242.37 0-438.85 196.48-438.85 438.85s196.48 438.85 438.85 438.85c242.37 0 438.85-196.48 438.85-438.85v0c0-242.37-196.48-438.85-438.85-438.85v0zM768 448c0-20.187-16.365-36.551-36.551-36.551v0h-182.898v-182.85c0-20.2-16.375-36.575-36.575-36.575s-36.575 16.375-36.575 36.575v0 182.85h-182.614c-20.2 0-36.575 16.375-36.575 36.575s16.375 36.575 36.575 36.575v0h182.85v182.614c0 20.2 16.375 36.575 36.575 36.575s36.575-16.375 36.575-36.575v0-182.85h182.85c20.039-0.107 36.256-16.323 36.362-36.352v-0.010z"/>
<glyph unicode="" glyph-name="arrow-bottom" d="M443.136 193.877c18.222-16.47 42.494-26.548 69.12-26.548s50.898 10.078 69.21 26.628l-0.090-0.080 375.467 357.547c15.324 15.429 24.795 36.689 24.795 60.16 0 47.155-38.227 85.381-85.381 85.381-23.683 0-45.115-9.643-60.582-25.217l-0.005-0.005-313.173-295.253c-3.736-3.295-8.673-5.306-14.080-5.306s-10.344 2.011-14.103 5.326l-352.404 306.327c-14.965 13.134-34.707 21.146-56.32 21.146-47.261 0-85.573-38.312-85.573-85.573 0-25.647 11.283-48.659 29.156-64.343l0.097-0.083z"/>
<glyph unicode="" glyph-name="arrow-up" d="M538.539 677.461c-18.222 16.47-42.494 26.548-69.12 26.548s-50.898-10.078-69.21-26.628l0.090 0.080-375.467-357.547c-15.324-15.429-24.795-36.689-24.795-60.16 0-47.155 38.227-85.381 85.381-85.381 23.683 0 45.115 9.643 60.582 25.217l0.005 0.005 313.173 295.253c3.736 3.295 8.673 5.306 14.080 5.306s10.344-2.011 14.103-5.326l352.404-306.327c14.965-13.134 34.707-21.146 56.32-21.146 47.261 0 85.573 38.312 85.573 85.573 0 25.647-11.283 48.659-29.156 64.343l-0.097 0.083z"/>
<glyph unicode="" glyph-name="close" horiz-adv-x="1020" d="M20.081-39.916c-12.401 12.473-20.067 29.667-20.067 48.65s7.666 36.177 20.070 48.653l878.461 878.461c12.732 14.804 31.485 24.121 52.414 24.121 38.112 0 69.007-30.896 69.007-69.007 0-20.929-9.317-39.682-24.030-52.338l-0.091-0.076-878.464-878.464c-12.473-12.401-29.667-20.067-48.65-20.067s-36.177 7.666-48.653 20.070l0.003-0.003zM20.081 935.847c12.473 12.401 29.667 20.067 48.65 20.067s36.177-7.666 48.653-20.070l878.461-878.461c14.804-12.732 24.121-31.485 24.121-52.414 0-38.112-30.896-69.007-69.007-69.007-20.929 0-39.682 9.317-52.338 24.030l-0.076 0.091-878.464 878.464c-12.401 12.473-20.067 29.667-20.067 48.65s7.666 36.177 20.070 48.653l-0.003-0.003z"/>
<glyph unicode="" d="M292.571 960c403.957 0 731.429-327.472 731.429-731.429v0c0-161.583-130.989-292.571-292.571-292.571v0h-438.857c-161.583 0-292.571 130.989-292.571 292.571v0 438.857c0 161.583 130.989 292.571 292.571 292.571v0z"/>
<glyph unicode="" d="M314.539 251.246c-4.382 4.407-7.090 10.481-7.090 17.189s2.708 12.782 7.091 17.19l310.369 310.369c4.498 5.23 11.124 8.522 18.518 8.522 13.465 0 24.381-10.916 24.381-24.381 0-7.395-3.292-14.020-8.49-18.491l-0.032-0.027-310.37-310.37c-4.407-4.382-10.481-7.090-17.189-7.090s-12.782 2.708-17.19 7.091l0.001-0.001z"/>
<glyph unicode="" d="M314.539 595.992c4.407 4.382 10.481 7.090 17.189 7.090s12.782-2.708 17.19-7.091l310.369-310.369c5.23-4.498 8.522-11.124 8.522-18.518 0-13.465-10.916-24.381-24.381-24.381-7.395 0-14.020 3.292-18.491 8.49l-0.027 0.032-310.37 310.37c-4.382 4.407-7.090 10.481-7.090 17.189s2.708 12.782 7.091 17.19l-0.001-0.001z"/>
<glyph unicode="" glyph-name="delete" d="M687.055-39.619h-374.491c-77.965 1.163-141.321 62.143-146.263 139.022l-0.022 0.437-44.373 674.865c-0.025 0.514-0.040 1.116-0.040 1.721 0 9.694 3.722 18.519 9.815 25.123l-0.023-0.025c6.694 7.298 16.191 11.933 26.773 12.19l0.046 0.001h682.667c0.024 0 0.053 0 0.081 0 20.198 0 36.571-16.374 36.571-36.571 0-0.858-0.030-1.709-0.088-2.552l0.006 0.114-42.423-674.865c-5.016-77.984-69.442-139.35-148.225-139.459h-0.011zM199.436 740.571l37.547-636.343c2.637-39.59 35.397-70.705 75.424-70.705 0.055 0 0.111 0 0.166 0h374.482c39.998 0.162 72.702 31.168 75.566 70.457l0.015 0.248 39.497 633.905zM938.667 740.571h-877.714c-20.198 0-36.571 16.374-36.571 36.571s16.374 36.571 36.571 36.571v0h877.714c20.198 0 36.571-16.374 36.571-36.571s-16.374-36.571-36.571-36.571v0zM646.095 740.571h-292.571c-20.088 0.271-36.3 16.484-36.571 36.546v87.797c1.324 51.973 43.113 93.761 94.961 95.083l0.124 0.003h175.543c52.802-1.362 95.086-44.49 95.086-97.493 0-0.011 0-0.021 0-0.032v0.002-85.333c-0.271-20.088-16.484-36.3-36.546-36.571h-0.026zM390.095 813.714h219.429v48.762c0 12.119-9.824 21.943-21.943 21.943v0h-175.543c-12.119 0-21.943-9.824-21.943-21.943v0zM646.095 155.429c-20.088 0.271-36.3 16.484-36.571 36.546v390.121c0 20.198 16.374 36.571 36.571 36.571s36.571-16.374 36.571-36.571v0-390.095c-0.271-20.088-16.484-36.3-36.546-36.571h-0.026zM353.524 155.429c-20.088 0.271-36.3 16.484-36.571 36.546v390.121c0 20.198 16.374 36.571 36.571 36.571s36.571-16.374 36.571-36.571v0-390.095c-0.271-20.088-16.484-36.3-36.546-36.571h-0.026zM499.81 155.429c-20.088 0.271-36.3 16.484-36.571 36.546v390.121c0 20.198 16.374 36.571 36.571 36.571s36.571-16.374 36.571-36.571v0-390.095c-0.271-20.088-16.484-36.3-36.546-36.571h-0.026z"/>
<glyph unicode="" d="M512 960c282.77 0 512-229.23 512-512s-229.23-512-512-512c-282.77 0-512 229.23-512 512s229.23 512 512 512z"/>
<glyph unicode="" d="M512 941.037c272.297 0 493.037-220.74 493.037-493.037s-220.74-493.037-493.037-493.037c-272.297 0-493.037 220.74-493.037 493.037s220.74 493.037 493.037 493.037z"/>
<glyph unicode="" d="M227.556 434.119l181.817-182.044 349.146 348.691-50.138 49.304-299.008-298.553-132.513 132.399z"/>
<glyph unicode="" glyph-name="download" d="M511.162-41.519h-368.175c-0.704-0.013-1.534-0.020-2.366-0.020-48.34 0-90.943 24.563-116.008 61.889l-0.317 0.502c-15.143 21.464-24.204 48.164-24.204 76.979 0 0.101 0 0.201 0 0.302v-0.016 279.273c-0.070 0.928-0.11 2.010-0.11 3.102 0 18.336 11.28 34.038 27.279 40.545l0.293 0.105c5.79 3.022 12.645 4.795 19.915 4.795 11.795 0 22.499-4.667 30.368-12.255l-0.013 0.013c9.459-8.553 15.377-20.87 15.377-34.569 0-0.447-0.006-0.892-0.019-1.336l0.001 0.065v-276.48c-0.011-0.379-0.017-0.824-0.017-1.271 0-14.978 7.074-28.303 18.064-36.817l0.106-0.079c7.299-5.802 16.65-9.309 26.82-9.309 0.062 0 0.124 0 0.186 0h741.925c1.023-0.080 2.215-0.126 3.418-0.126 25.706 0 46.545 20.839 46.545 46.545 0 1.355-0.058 2.696-0.171 4.022l0.012-0.173v273.222c0.732 25.135 21.283 45.231 46.527 45.231 23.437 0 42.828-17.322 46.069-39.862l0.029-0.25c0.101-0.908 0.159-1.96 0.159-3.025s-0.058-2.118-0.17-3.154l0.011 0.128v-274.153c0-77.119-62.517-139.636-139.636-139.636v0zM475.322 289.42v595.782c-0.055 0.909-0.086 1.971-0.086 3.040 0 9.101 2.271 17.671 6.278 25.175l-0.14-0.288c8.152 14.199 23.228 23.608 40.501 23.608 25.706 0 46.545-20.839 46.545-46.545 0-0.282-0.003-0.563-0.007-0.843l0.001 0.042v-599.971l6.982 5.585 114.036 93.091c7.996 6.303 18.215 10.11 29.324 10.11 26.277 0 47.579-21.302 47.579-47.579 0-15.169-7.098-28.68-18.155-37.392l-0.101-0.077-190.371-152.204c-9.304-7.643-21.333-12.276-34.444-12.276s-25.14 4.633-34.539 12.352l0.095-0.076-192.233 152.669c-10.188 8.488-16.625 21.18-16.625 35.375 0 25.376 20.572 45.948 45.948 45.948 11.182 0 21.431-3.994 29.398-10.634l-0.074 0.060 82.385-66.095z"/>
<glyph unicode="" glyph-name="edit" d="M71.719-64.056c-39.626 0.101-71.71 32.248-71.71 71.888 0 3.295 0.222 6.538 0.651 9.716l-0.041-0.371 25.67 196.243c2.508 18.481 10.876 34.661 23.139 46.951l676.491 676.604c14.257 14.23 33.938 23.030 55.675 23.030s41.418-8.8 55.677-23.031l163.648-163.648c14.23-14.257 23.030-33.938 23.030-55.675s-8.8-41.418-23.031-55.677l-676.492-676.605c-12.287-12.265-28.467-20.633-46.528-23.090l-0.422-0.047-196.243-25.67c-2.842-0.394-6.127-0.619-9.463-0.619-0.018 0-0.035 0-0.053 0h0.003zM124.636 194.111l-20.097-153.684 153.684 20.097 657.015 657.128-133.587 133.531zM813.683 495.456c-0.033 0-0.073 0-0.113 0-13.759 0-26.217 5.571-35.241 14.581l-204.349 204.349c-9.451 9.117-15.321 21.892-15.321 36.038 0 27.64 22.406 50.046 50.046 50.046 14.174 0 26.972-5.893 36.078-15.362l204.309-204.309c9.049-9.047 14.647-21.546 14.647-35.353 0-27.609-22.381-49.99-49.99-49.99-0.004 0-0.007 0-0.011 0h0.001z"/>
<glyph unicode="" glyph-name="email" d="M919.074 64.614c0.365-0.006 0.796-0.009 1.228-0.009 22.284 0 42.593 8.453 57.895 22.328l-0.072-0.065-285.901 285.901-19.797-14.199q-32.085-23.62-52.087-36.864c-15.217-9.865-32.736-19.026-51.106-26.532l-2.142-0.774c-18.225-8.212-39.466-13.192-61.818-13.651l-0.169-0.003h-1.092c-22.52 0.459-43.761 5.439-63.013 14.065l1.027-0.411c-20.51 8.275-38.029 17.436-54.509 28.068l1.261-0.762q-20.002 13.244-52.087 36.864l-19.729 14.336-285.969-286.037c15.24-13.81 35.557-22.263 57.849-22.263 0.422 0 0.844 0.003 1.265 0.009l-0.064-0.001zM56.866 552.926c-21.525 14.387-40.186 30.553-56.635 48.756l-0.231 0.26v-434.995l252.041 252.041q-75.639 52.77-195.174 133.939zM952.866 552.926q-115.029-77.892-195.584-134.144l251.904-251.904v435.063c-16.607-18.351-35.075-34.5-55.259-48.329l-1.061-0.687zM919.074 857.6h-828.962c-1.371 0.083-2.974 0.131-4.588 0.131-24.99 0-47.318-11.399-62.067-29.28l-0.11-0.137c-14.612-18.921-23.421-42.974-23.421-69.084 0-1.441 0.027-2.876 0.080-4.305l-0.006 0.206c1.902-29.58 13.301-56.182 31.147-77.121l-0.153 0.185c18.44-25.355 40.23-46.884 65.012-64.475l0.865-0.583q19.115-13.653 115.439-80.282c34.679-24.030 64.785-44.988 90.726-63.010l56.866-39.731 8.397-6.007 15.497-11.196q18.295-13.244 30.379-21.436t29.286-18.295c9.259-5.717 19.941-10.856 31.166-14.853l1.193-0.371c8.353-3.032 17.996-4.868 28.043-5.051l0.083-0.001h1.092c10.13 0.184 19.772 2.020 28.751 5.248l-0.625-0.196c12.417 4.368 23.099 9.506 33.101 15.647l-0.742-0.424q17.203 10.172 29.286 18.295t30.379 21.436l15.497 11.196 8.397 6.007 263.578 182.955c27.11 18.975 49.908 41.969 68.088 68.387l0.588 0.904c16.904 23.677 27.102 53.158 27.306 85.010v0.050c-0.421 49.597-40.515 89.691-90.072 90.112h-0.040z"/>
<glyph unicode="" d="M512 960c282.77 0 512-229.23 512-512s-229.23-512-512-512c-282.77 0-512 229.23-512 512s229.23 512 512 512z"/>
<glyph unicode="" d="M512 941.037c272.297 0 493.037-220.74 493.037-493.037s-220.74-493.037-493.037-493.037c-272.297 0-493.037 220.74-493.037 493.037s220.74 493.037 493.037 493.037z"/>
<glyph unicode="" d="M560.431 451.224l157.506 157.544c4.154 4.175 6.722 9.932 6.722 16.289s-2.568 12.114-6.723 16.29l0.001-0.001-13.767 13.805c-4.175 4.154-9.932 6.722-16.289 6.722s-12.114-2.568-16.29-6.723l-157.543-157.505-157.544 157.506c-4.175 4.154-9.932 6.722-16.289 6.722s-12.114-2.568-16.29-6.723l0.001 0.001-13.767-13.805c-4.163-4.171-6.738-9.93-6.738-16.289s2.575-12.118 6.738-16.29v0l157.506-157.544-157.506-157.506c-4.154-4.175-6.722-9.932-6.722-16.289s2.568-12.114 6.723-16.29l13.804-13.804c4.175-4.154 9.932-6.722 16.289-6.722s12.114 2.568 16.29 6.723l157.505 157.505 157.506-157.506c4.123-4.147 9.831-6.714 16.139-6.714 0.059 0 0.119 0 0.178 0.001h-0.009c0.050 0 0.11-0.001 0.169-0.001 6.308 0 12.016 2.567 16.138 6.712l13.806 13.806c4.154 4.175 6.722 9.932 6.722 16.289s-2.568 12.114-6.723 16.29l0.001-0.001z"/>
<glyph unicode="" glyph-name="excel" d="M557.018 914.868c-5.442 4.496-12.489 7.224-20.174 7.224-2.080 0-4.113-0.2-6.081-0.581l0.2 0.032-505.211-94.739c-14.75-2.802-25.752-15.593-25.752-30.953 0-0.025 0-0.049 0-0.074v0.004-694.765c0-0.002 0-0.005 0-0.007 0-15.375 10.996-28.182 25.554-30.985l0.198-0.032 505.211-94.739c1.743-0.359 3.748-0.566 5.8-0.569h0.002c17.448 0 31.592 14.144 31.592 31.592v0 884.281c0 0.035 0 0.076 0 0.117 0 9.702-4.389 18.379-11.291 24.154l-0.049 0.040zM505.287 44.354l-442.14 82.868v642.351l442.14 82.868zM979.020 795.781h-442.14c-0.326 0.012-0.71 0.019-1.094 0.019-17.448 0-31.592-14.144-31.592-31.592s14.144-31.592 31.592-31.592c0.385 0 0.768 0.007 1.15 0.021l-0.055-0.002h410.548v-568.472h-410.548c-16.971-0.607-30.498-14.51-30.498-31.573s13.527-30.967 30.443-31.572l0.055-0.002h442.14c17.448 0 31.592 14.144 31.592 31.592v0 631.58c0 17.448-14.144 31.592-31.592 31.592v0zM663.173 669.487h-126.331c-0.326 0.012-0.71 0.019-1.094 0.019-17.448 0-31.592-14.144-31.592-31.592s14.144-31.592 31.592-31.592c0.385 0 0.768 0.007 1.15 0.021l-0.055-0.002h126.331c16.971 0.607 30.498 14.51 30.498 31.573s-13.527 30.967-30.443 31.572l-0.055 0.002zM663.173 543.156h-126.331c-16.971-0.607-30.498-14.51-30.498-31.573s13.527-30.967 30.443-31.572l0.055-0.002h126.331c16.971 0.607 30.498 14.51 30.498 31.573s-13.527 30.967-30.443 31.572l-0.055 0.002zM663.173 416.825h-126.331c-16.971-0.607-30.498-14.51-30.498-31.573s13.527-30.967 30.443-31.572l0.055-0.002h126.331c0.326-0.012 0.71-0.019 1.094-0.019 17.448 0 31.592 14.144 31.592 31.592s-14.144 31.592-31.592 31.592c-0.385 0-0.768-0.007-1.15-0.021l0.055 0.002zM663.173 290.494h-126.331c-16.971-0.607-30.498-14.51-30.498-31.573s13.527-30.967 30.443-31.572l0.055-0.002h126.331c16.971 0.607 30.498 14.51 30.498 31.573s-13.527 30.967-30.443 31.572l-0.055 0.002zM852.764 669.487h-63.147c-16.971-0.607-30.498-14.51-30.498-31.573s13.527-30.967 30.443-31.572l0.055-0.002h63.147c16.971 0.607 30.498 14.51 30.498 31.573s-13.527 30.967-30.443 31.572l-0.055 0.002zM852.764 543.156h-63.147c-16.971-0.607-30.498-14.51-30.498-31.573s13.527-30.967 30.443-31.572l0.055-0.002h63.147c16.971 0.607 30.498 14.51 30.498 31.573s-13.527 30.967-30.443 31.572l-0.055 0.002zM852.764 416.825h-63.147c-16.971-0.607-30.498-14.51-30.498-31.573s13.527-30.967 30.443-31.572l0.055-0.002h63.147c16.971 0.607 30.498 14.51 30.498 31.573s-13.527 30.967-30.443 31.572l-0.055 0.002zM852.764 290.494h-63.147c-16.971-0.607-30.498-14.51-30.498-31.573s13.527-30.967 30.443-31.572l0.055-0.002h63.147c16.971 0.607 30.498 14.51 30.498 31.573s-13.527 30.967-30.443 31.572l-0.055 0.002zM434.404 342.907l-221.070 252.663c-5.827 6.619-14.318 10.773-23.78 10.773-17.47 0-31.632-14.162-31.632-31.632 0-8.008 2.976-15.322 7.882-20.894l-0.030 0.035 221.070-252.663c5.827-6.619 14.318-10.773 23.78-10.773 17.47 0 31.632 14.162 31.632 31.632 0 8.008-2.976 15.322-7.882 20.894l0.030-0.035zM429.928 631.22c-5.299 4.16-12.065 6.672-19.418 6.672-10.094 0-19.082-4.734-24.866-12.103l-0.052-0.068-221.070-284.217c-4.023-5.246-6.447-11.902-6.447-19.125 0-17.448 14.144-31.592 31.592-31.592 9.964 0 18.851 4.613 24.641 11.82l0.048 0.062 221.070 284.217c4.169 5.298 6.687 12.067 6.687 19.424 0 10.095-4.741 19.083-12.117 24.859l-0.069 0.052z"/>
<glyph unicode="" glyph-name="Groupe-3403" d="M71.719-64.056c-39.626 0.101-71.71 32.248-71.71 71.888 0 3.295 0.222 6.538 0.651 9.716l-0.041-0.371 25.67 196.243c2.508 18.481 10.876 34.661 23.139 46.951l676.491 676.604c14.257 14.23 33.938 23.030 55.675 23.030s41.418-8.8 55.677-23.031l163.648-163.648c14.23-14.257 23.030-33.938 23.030-55.675s-8.8-41.418-23.031-55.677l-676.492-676.605c-12.287-12.265-28.467-20.633-46.528-23.090l-0.422-0.047-196.243-25.67c-2.842-0.394-6.127-0.619-9.463-0.619-0.018 0-0.035 0-0.053 0h0.003zM124.636 194.111l-20.097-153.684 153.684 20.097 657.015 657.128-133.587 133.531zM813.683 495.456c-0.033 0-0.073 0-0.113 0-13.759 0-26.217 5.571-35.241 14.581l-204.349 204.349c-9.451 9.117-15.321 21.892-15.321 36.038 0 27.64 22.406 50.046 50.046 50.046 14.174 0 26.972-5.893 36.078-15.362l204.309-204.309c9.049-9.047 14.647-21.546 14.647-35.353 0-27.609-22.381-49.99-49.99-49.99-0.004 0-0.007 0-0.011 0h0.001z"/>
</font>
</defs>
</svg>
